<svg xmlns="http://www.w3.org/2000/svg" viewBox="0 0 64 64">
  <defs>
    <linearGradient id="bg" x1="0%" y1="0%" x2="100%" y2="100%">
      <stop offset="0%" stop-color="#3b82f6"/>
      <stop offset="100%" stop-color="#22c55e"/>
    </linearGradient>
  </defs>
  <rect width="64" height="64" rx="14" fill="url(#bg)"/>
  <g fill="none" stroke="#fff" stroke-width="3.5" stroke-linecap="round" stroke-linejoin="round">
    <path d="M22 16c-5 0-9 4.5-9 10 0 2 .8 3.5 1.8 5.2-.8 1.5-1.8 3-1.8 5.8 0 5.5 3.5 9.5 9 10 2 3.5 5.5 5.5 10 5.5"/>
    <path d="M42 16c5 0 9 4.5 9 10 0 2-.8 3.5-1.8 5.2.8 1.5 1.8 3 1.8 5.8 0 5.5-3.5 9.5-9 10-2 3.5-5.5 5.5-10 5.5"/>
    <path d="M25 25c2.5-3 11.5-3 14 0"/>
    <path d="M23 33c3.5-2.5 14.5-2.5 18 0"/>
    <path d="M25 41c4-2 10-2 14 0"/>
  </g>
</svg>
